<svg xmlns="http://www.w3.org/2000/svg" width="1400" height="560" viewBox="0 0 1400 560">
  <defs>
    <linearGradient id="bg" x1="40" y1="20" x2="1360" y2="540" gradientUnits="userSpaceOnUse">
      <stop stop-color="#211247"/>
      <stop offset=".46" stop-color="#0D0B18"/>
      <stop offset="1" stop-color="#160A19"/>
    </linearGradient>
    <linearGradient id="accent" x1="135" y1="152" x2="342" y2="366" gradientUnits="userSpaceOnUse">
      <stop stop-color="#9B72FF"/>
      <stop offset=".5" stop-color="#E93FA6"/>
      <stop offset="1" stop-color="#FF3D66"/>
    </linearGradient>
    <filter id="blur"><feGaussianBlur stdDeviation="70"/></filter>
  </defs>
  <rect width="1400" height="560" fill="url(#bg)"/>
  <circle cx="110" cy="60" r="190" fill="#7945FF" fill-opacity=".18" filter="url(#blur)"/>
  <circle cx="1280" cy="510" r="200" fill="#FF386F" fill-opacity=".14" filter="url(#blur)"/>

  <g font-family="Arial, sans-serif">
    <circle cx="205" cy="278" r="89" fill="none" stroke="url(#accent)" stroke-width="27"/>
    <path d="M270 343l47 47" stroke="#FF4A78" stroke-width="29" stroke-linecap="round"/>
    <path d="M158 276c29-35 67-35 96 0-29 35-67 35-96 0Z" fill="#FAF8FF"/>
    <circle cx="206" cy="276" r="19" fill="#7B4DFF"/>

    <text x="386" y="203" fill="#AC98FF" font-size="17" font-weight="700" letter-spacing="3.5">ENGAGEMENT X-RAY</text>
    <text x="386" y="265" fill="#FFFFFF" font-size="54" font-weight="700">Creator Trust Lens</text>
    <text x="386" y="311" fill="#A6A0B1" font-size="22">Evidence-led creator screening</text>
    <rect x="386" y="350" width="284" height="48" rx="14" fill="#7849FF"/>
    <text x="528" y="380" fill="#FFFFFF" font-size="13" font-weight="700" text-anchor="middle">LOCAL ANALYSIS · CLEAR EVIDENCE</text>

    <rect x="922" y="66" width="368" height="428" rx="28" fill="#0B0A13" stroke="#FFFFFF" stroke-opacity=".14"/>
    <rect x="946" y="90" width="320" height="52" rx="13" fill="#171423"/>
    <circle cx="974" cy="116" r="15" fill="#2B1D50"/>
    <circle cx="974" cy="114" r="7" fill="none" stroke="#F0449B" stroke-width="3"/>
    <path d="M979 120l5 5" stroke="#FF3F6D" stroke-width="3" stroke-linecap="round"/>
    <text x="1002" y="113" fill="#A993FF" font-size="8" font-weight="700" letter-spacing="1.3">ENGAGEMENT X-RAY</text>
    <text x="1002" y="131" fill="#FFFFFF" font-size="15" font-weight="700">Creator Trust Lens</text>

    <rect x="946" y="160" width="320" height="211" rx="18" fill="#13111F" stroke="#FFFFFF" stroke-opacity=".1"/>
    <text x="1106" y="189" fill="#BDB7CC" font-size="12" text-anchor="middle">@samplecreator</text>
    <circle cx="1106" cy="257" r="47" fill="none" stroke="#352040" stroke-width="9"/>
    <circle cx="1106" cy="257" r="47" fill="none" stroke="url(#accent)" stroke-width="9" stroke-dasharray="239 57" transform="rotate(-90 1106 257)"/>
    <text x="1106" y="266" fill="#FFFFFF" font-size="36" font-weight="700" text-anchor="middle">78</text>
    <text x="1106" y="287" fill="#FF648B" font-size="8" font-weight="700" letter-spacing="1.2" text-anchor="middle">TRUST SCORE</text>
    <text x="1106" y="326" fill="#FFFFFF" font-size="12" font-weight="700" text-anchor="middle">High confidence</text>
    <text x="1106" y="348" fill="#8E8899" font-size="9" text-anchor="middle">8 posts · 847 comments</text>

    <rect x="946" y="389" width="152" height="78" rx="14" fill="#13111F" stroke="#FFFFFF" stroke-opacity=".1"/>
    <text x="963" y="420" fill="#FF5483" font-size="22" font-weight="700">8%</text>
    <text x="963" y="443" fill="#FFFFFF" font-size="10" font-weight="700">Repeated comments</text>
    <rect x="1114" y="389" width="152" height="78" rx="14" fill="#13111F" stroke="#FFFFFF" stroke-opacity=".1"/>
    <text x="1131" y="420" fill="#FF5483" font-size="22" font-weight="700">83%</text>
    <text x="1131" y="443" fill="#FFFFFF" font-size="10" font-weight="700">Audience diversity</text>
  </g>
</svg>
